<svg width="49" height="50" viewBox="0 0 49 50" fill="none" xmlns="http://www.w3.org/2000/svg">
<path d="M29.6979 20.4185C29.3677 19.782 28.6164 19.3706 27.784 19.3706C27.781 19.3706 20.0867 19.3815 20.0449 19.3815C19.3069 19.3815 18.6524 19.8389 18.3517 20.4185L14.3347 28.1595C14.1137 28.5852 14.105 29.0573 14.31 29.4885C14.515 29.9198 14.9093 30.2587 15.4202 30.4429C15.6837 30.5377 15.9616 30.5858 16.2466 30.5858C17.0789 30.5858 17.8299 30.1746 18.1602 29.5381L18.8914 28.1289V42.8992C18.8914 43.9537 19.921 44.8116 21.1865 44.8116C22.4521 44.8116 23.4817 43.9536 23.4817 42.8992V33.0515H24.455V42.8992C24.455 43.9537 25.4846 44.8116 26.7503 44.8116C28.0158 44.8116 29.0452 43.9536 29.0452 42.8992V27.9113L29.8894 29.538C30.2198 30.1744 30.9709 30.5857 31.8028 30.5857C32.0878 30.5857 32.3657 30.5376 32.6292 30.4427C33.1401 30.2586 33.5344 29.9198 33.7395 29.4884C33.9444 29.0573 33.9357 28.5852 33.7147 28.1594L29.6979 20.4185Z" fill="white"/>
<path d="M23.7635 18.7342C26.6592 18.7342 29.015 16.7707 29.015 14.3572C29.015 11.9435 26.6591 9.97998 23.7635 9.97998C20.8671 9.97998 18.5108 11.9436 18.5108 14.3572C18.5107 16.7707 20.8671 18.7342 23.7635 18.7342Z" fill="white"/>
<path d="M45.5556 9.86866L36.114 2.0566C34.6731 0.864902 32.1542 0 30.1246 0H4.9614C2.22577 0 0 1.85481 0 4.1345V45.8654C0 48.1452 2.22577 50 4.9614 50H43.0878C45.8236 50 48.0495 48.1452 48.0495 45.8654V14.8598C48.0495 13.1627 47.0004 11.0634 45.5556 9.86866ZM4.96019 45.8654L4.9614 4.13349H30.1246C30.2082 4.13349 30.3002 4.14013 30.3974 4.15166V11.636C30.3974 13.9158 32.6232 15.7707 35.3588 15.7707H43.0893L43.0884 45.8665L4.96019 45.8654Z" fill="white"/>
</svg>
