<svg width="40" height="52" viewBox="0 0 40 52" fill="none" xmlns="http://www.w3.org/2000/svg">
<path d="M0 51.4287L1.4228 51.1201C1.86635 51.0258 2.30562 50.9379 2.74917 50.8501C3.43057 50.7172 4.11411 50.5865 4.79551 50.4601C5.30978 50.3615 5.82404 50.2779 6.34045 50.1837L6.4583 50.1515C6.994 50.0572 7.5254 49.9587 8.05895 49.8944L10.6603 49.5108V0H10.5703C9.22033 0.00857143 7.87896 0.0342855 6.5333 0.0771426C5.05693 0.115714 3.54628 0.205714 2.06777 0.302143C1.42708 0.347143 0.782112 0.400714 0.141424 0.452143H0.0450008V51.4157L0 51.4287ZM13.1823 0.0343673V49.1937C15.0272 48.9795 16.8679 48.8037 18.7149 48.6666C23.2597 48.3216 27.8174 48.2145 32.3708 48.3431C34.7878 48.4159 37.1984 48.5552 39.6005 48.7545V3.22281C37.4492 2.73211 35.2892 2.29713 33.1122 1.92214C28.8952 1.18932 24.6375 0.677194 20.3692 0.355783C17.9821 0.182211 15.5844 0.0729258 13.1866 0.0364972L13.1823 0.0343673ZM36.2449 31.7409L36.1463 31.7323L34.9443 31.6016C31.9465 31.2888 28.9338 31.0831 25.9296 30.9781C22.9148 30.8816 19.8977 30.9138 16.8807 31.0124H16.7864C16.69 31.0124 16.5914 31.0124 16.4972 30.9781C16.2807 30.9138 16.0793 30.8195 15.925 30.6588C15.6529 30.3674 15.5265 29.9838 15.5908 29.5981C15.6079 29.4674 15.6529 29.3731 15.7065 29.2424C15.7643 29.1481 15.8415 29.0195 15.9293 28.9553C16.0215 28.8588 16.1222 28.7945 16.2357 28.7324C16.3665 28.6681 16.495 28.6338 16.6214 28.6017H16.8143C17.2321 28.6017 17.6521 28.5674 18.0357 28.5674C21.0248 28.5053 23.9776 28.5053 26.9689 28.6317C30.0523 28.7603 33.1058 28.9853 36.1571 29.3388L36.4806 29.3709C36.5749 29.4052 36.6713 29.4052 36.7699 29.4352C36.9949 29.5338 37.1856 29.6602 37.3163 29.8231C37.4106 29.9174 37.4749 30.0459 37.5413 30.1745C37.6035 30.3052 37.6356 30.4317 37.6356 30.5602C37.6677 30.9138 37.5413 31.2673 37.2842 31.5245C37.1856 31.623 37.0892 31.6852 36.9949 31.7495C36.8942 31.8138 36.7699 31.8438 36.6392 31.878C36.5749 31.9123 36.5427 31.9123 36.4485 31.9123H36.3477L36.2449 31.7409ZM36.3199 25.9319C36.2256 25.9319 36.2256 25.9319 36.1271 25.919L34.9378 25.7669C31.9487 25.3833 28.9295 25.124 25.9425 24.9976C22.9533 24.8369 19.932 24.8047 16.9129 24.869L16.8143 24.8347C16.7179 24.8026 16.6214 24.8026 16.525 24.7726C16.3322 24.7083 16.1093 24.5797 15.9808 24.4169C15.9165 24.3205 15.8179 24.194 15.7879 24.0997C15.6272 23.744 15.6272 23.3262 15.8179 22.9748C15.8843 22.8441 15.9486 22.7498 16.0429 22.6534C16.1372 22.5569 16.2357 22.4605 16.3643 22.4305C16.495 22.3662 16.6193 22.3019 16.75 22.3019L16.9429 22.2677L18.1964 22.2355C21.1877 22.2012 24.1404 22.2677 27.0953 22.4284C30.1787 22.5891 33.2343 22.8784 36.2856 23.264L36.6049 23.2983L36.7999 23.3283C37.0249 23.3948 37.2156 23.489 37.3785 23.684C37.6356 23.939 37.7642 24.2926 37.732 24.6461C37.732 24.7769 37.6977 24.9054 37.6356 24.9997C37.5735 25.1283 37.5049 25.2226 37.4427 25.3211C37.3785 25.4154 37.2842 25.4819 37.1513 25.5783C37.057 25.6404 36.9285 25.6747 36.7999 25.709L36.6049 25.739H36.5149L36.3199 25.9319ZM36.3199 20.1228C36.2256 20.1228 36.2256 20.1228 36.1271 20.11L34.9378 19.9385C31.9487 19.5314 28.9616 19.2228 25.9425 19.0214C22.9533 18.8243 19.932 18.7321 16.9129 18.745H16.8143L16.6214 18.7107C16.495 18.6764 16.3986 18.6336 16.27 18.565C15.9486 18.3679 15.7215 18.0207 15.6593 17.6265C15.6593 17.4957 15.6593 17.3693 15.6936 17.2407C15.7236 17.11 15.7558 16.99 15.8201 16.8765C15.8865 16.7607 15.9829 16.6579 16.0793 16.5679C16.2379 16.4072 16.465 16.2979 16.69 16.2465C16.7864 16.2229 16.8807 16.2143 16.9793 16.2143H18.1985C21.282 16.2336 24.3675 16.3515 27.421 16.5829C30.4102 16.8079 33.365 17.14 36.3199 17.5621L36.6413 17.6071C36.7399 17.6221 36.7721 17.6221 36.8342 17.6478C36.9628 17.6907 37.0913 17.7464 37.1878 17.8193C37.3185 17.89 37.4106 17.98 37.4771 18.0828C37.5435 18.1857 37.6078 18.2993 37.6699 18.4214C37.8028 18.7557 37.7663 19.1371 37.6078 19.4478C37.5456 19.5657 37.4771 19.6728 37.3828 19.7607C37.2221 19.9192 37.0313 20.0328 36.8042 20.0821C36.7421 20.1078 36.7057 20.1078 36.6092 20.1121L36.5149 20.1228L36.3199 20.1228ZM36.3199 14.3116C36.2256 14.3116 36.2256 14.3116 36.1271 14.2966L34.9378 14.1038C31.9487 13.6217 28.9616 13.2659 25.9425 13.041C22.9533 12.786 19.932 12.6574 16.9129 12.5931H16.8143L16.5893 12.5631C16.4586 12.531 16.3429 12.4667 16.2357 12.4046C16.1222 12.3381 16.0236 12.2417 15.9358 12.1453C15.8586 12.0488 15.7901 11.9224 15.7343 11.826C15.6915 11.6974 15.6551 11.5688 15.6401 11.4381C15.6058 11.0524 15.7536 10.6432 16.0279 10.3796C16.1865 10.2189 16.405 10.1117 16.6257 10.0582C16.7222 10.026 16.8186 10.026 16.915 10.026C17.32 10.026 17.7293 10.0367 18.1364 10.0432C21.2155 10.116 24.2883 10.2853 27.3589 10.5703C30.3309 10.8253 33.2943 11.2131 36.2406 11.6931L36.5299 11.7274C36.6156 11.7274 36.6413 11.7274 36.7228 11.7574C36.8556 11.7917 36.9628 11.856 37.0763 11.9202C37.1749 11.9824 37.2692 12.0788 37.3442 12.1752C37.5392 12.4645 37.6335 12.8202 37.5692 13.1716C37.5371 13.3023 37.5028 13.3966 37.4385 13.5273C37.3742 13.6238 37.2799 13.7502 37.1813 13.8166C37.0228 13.9752 36.8278 14.0716 36.6006 14.1359H36.3114L36.3199 14.3116ZM2.74275 13.221C2.5499 13.221 2.35491 13.176 2.16206 13.086C1.74636 12.8824 1.48923 12.4581 1.45709 12.0039C1.45709 11.8817 1.48923 11.766 1.52137 11.6503C1.55137 11.5046 1.61779 11.3653 1.71422 11.2431C1.81064 11.1039 1.93706 10.986 2.06563 10.896C2.23062 10.7889 2.42347 10.7331 2.58204 10.6989L3.61057 10.6046C5.02265 10.4803 6.40688 10.3796 7.78682 10.296H7.91539C8.14038 10.3046 8.33323 10.3474 8.49608 10.4481C8.91178 10.6689 9.16891 11.1017 9.16891 11.5602C9.16891 11.6781 9.13677 11.7938 9.10677 11.9052C9.07248 12.0488 9.01035 12.1881 8.91178 12.3102C8.8175 12.471 8.68893 12.5674 8.55822 12.6638C8.39966 12.7602 8.2368 12.8224 8.04396 12.8567C7.82111 12.8888 7.59612 12.8888 7.37113 12.921C7.07971 12.9531 6.7583 12.9531 6.43688 12.9874L3.93413 13.176L3.32344 13.2424C3.19273 13.2745 3.06202 13.2745 2.90346 13.2745L2.74275 13.221ZM36.2878 8.50473L36.0928 8.4833L34.9057 8.26901C31.9165 7.76761 28.8952 7.35834 25.8761 7.0605C22.8869 6.7648 19.8677 6.57838 16.8464 6.47981H16.75L16.5572 6.44124C16.4265 6.4091 16.3322 6.35981 16.2036 6.2891C16.1072 6.22481 16.0086 6.13481 15.9143 6.02981C15.6572 5.7341 15.5608 5.3227 15.6572 4.94557C15.6915 4.81486 15.7536 4.68843 15.8158 4.55986C15.8822 4.42914 15.9786 4.33486 16.075 4.23843C16.2336 4.07557 16.4607 3.97914 16.6857 3.917C16.7822 3.88486 16.8764 3.88486 16.975 3.88486L18.2264 3.917C21.2155 4.04772 24.1704 4.23843 27.1274 4.56198C30.2109 4.87912 33.2643 5.33123 36.3156 5.84763L36.6371 5.87763C36.7356 5.87763 36.7678 5.87763 36.8299 5.91192C36.9585 5.94406 37.0871 6.00835 37.1835 6.07049C37.4728 6.29549 37.6656 6.61904 37.6956 6.9726C37.7299 7.10117 37.6956 7.22974 37.6635 7.36045C37.6635 7.48688 37.6013 7.61545 37.537 7.71188C37.4706 7.80831 37.4042 7.90474 37.312 8.00117C37.1492 8.16402 36.9242 8.25831 36.6992 8.29045L36.5149 8.32045H36.4163L36.2878 8.50473ZM2.70632 6.85694C2.52204 6.85694 2.3399 6.81622 2.17062 6.73694C2.02063 6.66622 1.88349 6.56765 1.76993 6.44337C1.6735 6.32979 1.58565 6.20337 1.53208 6.05551C1.48922 5.95051 1.45923 5.83908 1.44851 5.72122C1.40137 5.26267 1.61565 4.80626 1.99492 4.55127C2.16205 4.43556 2.35276 4.36699 2.55204 4.33913C2.8906 4.30913 3.22487 4.30913 3.56557 4.27699C4.95837 4.18056 6.35331 4.11627 7.74182 4.05199H7.84467C8.03966 4.08627 8.23251 4.11627 8.39322 4.2127C8.77678 4.4377 9.03605 4.88767 9.03605 5.33551C9.03605 5.46623 9.00177 5.5948 8.97177 5.69123C8.90749 5.8498 8.8432 5.98051 8.74892 6.10908C8.64821 6.23766 8.51964 6.36623 8.35894 6.43051C8.19823 6.52694 8.00539 6.59123 7.81253 6.59123C7.58969 6.62123 7.36255 6.62123 7.10542 6.62123L6.14332 6.68766C5.2755 6.7498 4.43982 6.78408 3.602 6.84623L2.95916 6.88051C2.79846 6.91266 2.67203 6.91266 2.54347 6.91266L2.70632 6.85694Z" fill="white"/>
</svg>
