<svg width="50" height="50" viewBox="0 0 50 50" fill="none" xmlns="http://www.w3.org/2000/svg">
<path d="M23.1994 34.9671L20.3661 32.1339C19.878 31.6457 19.878 30.8543 20.3661 30.3661C20.8543 29.878 21.6457 29.878 22.1339 30.3661L27.1339 35.3661C27.622 35.8543 27.622 36.6457 27.1339 37.1339L22.1339 42.1339C21.6457 42.622 20.8543 42.622 20.3661 42.1339C19.878 41.6457 19.878 40.8543 20.3661 40.3661L23.261 37.4712C20.9168 37.3933 18.6577 37.1589 16.5299 36.7863C18.3437 43.234 21.5573 47.5 25 47.5C30.0128 47.5 34.54 38.4555 34.9671 26.8006L32.1339 29.6339C31.6457 30.122 30.8543 30.122 30.3661 29.6339C29.878 29.1457 29.878 28.3543 30.3661 27.8661L35.3661 22.8661C35.8543 22.378 36.6457 22.378 37.1339 22.8661L42.1339 27.8661C42.622 28.3543 42.622 29.1457 42.1339 29.6339C41.6457 30.122 40.8543 30.122 40.3661 29.6339L37.4712 26.739C37.0418 39.6629 31.8535 50 25 50C19.9395 50 15.7869 44.3641 13.7876 36.2124C5.63586 34.2131 0 30.0605 0 25C0 19.9395 5.63586 15.7869 13.7876 13.7876C15.7869 5.63586 19.9395 0 25 0C28.7554 0 32.066 3.09721 34.3584 8.26861C34.6382 8.89974 34.3534 9.63817 33.7223 9.91794C33.0911 10.1977 32.3527 9.91289 32.0729 9.28177C30.1375 4.91582 27.5553 2.5 25 2.5C21.5573 2.5 18.3437 6.76598 16.5299 13.2137C19.1794 12.7498 22.0325 12.5 25 12.5C38.723 12.5 50 17.8417 50 25C50 28.7554 46.9028 32.066 41.7314 34.3584C41.1003 34.6382 40.3618 34.3534 40.0821 33.7223C39.8023 33.0911 40.0871 32.3527 40.7182 32.0729C45.0842 30.1375 47.5 27.5553 47.5 25C47.5 19.7319 37.5105 15 25 15C21.7478 15 18.6659 15.3198 15.8856 15.8856C15.3198 18.6659 15 21.7478 15 25C15 28.2522 15.3198 31.3341 15.8856 34.1144C18.1475 34.5747 20.6089 34.8722 23.1994 34.9671ZM13.2137 16.5299C6.76598 18.3437 2.5 21.5573 2.5 25C2.5 28.4427 6.76598 31.6563 13.2137 33.4701C12.7498 30.8206 12.5 27.9675 12.5 25C12.5 22.0325 12.7498 19.1794 13.2137 16.5299Z" fill="white"/>
</svg>
