<svg width="60" height="50" viewBox="0 0 60 50" fill="none" xmlns="http://www.w3.org/2000/svg">
<path d="M14.0011 0C6.31231 0 0 6.31388 0 13.9987V36.0013C0 43.6862 6.31231 50.0001 14.0011 50.0001H45.9988C53.6875 50.0001 60 43.6862 60 36.0013V13.9987C60 6.31388 53.6875 0 45.9988 0H14.0011ZM14.0011 7.99753H45.9988C49.39 7.99753 51.9975 10.6036 51.9975 13.9987V36.0013C51.9975 39.3965 49.39 42.0025 45.9988 42.0025H14.0011C10.6098 42.0025 8.00236 39.3965 8.00236 36.0013V13.9987C8.00236 10.6036 10.6098 7.99753 14.0011 7.99753Z" fill="white"/>
<path d="M7.8109 4.00544C7.28603 4.03025 6.77118 4.15814 6.29577 4.38181C5.82035 4.60547 5.39367 4.92054 5.04009 5.30901C4.32604 6.09354 3.95307 7.12942 4.00323 8.18877C4.0534 9.24813 4.52259 10.2442 5.30758 10.9578L27.3075 30.9579C28.0441 31.6275 29.0041 31.9986 29.9999 31.9986C30.9957 31.9986 31.9557 31.6275 32.6924 30.9579L54.6923 10.9578C55.4773 10.2442 55.9464 9.24813 55.9966 8.18877C56.0468 7.12942 55.6738 6.09354 54.9597 5.30901C54.2457 4.52451 53.249 4.05564 52.189 4.00554C51.129 3.95544 50.0925 4.32822 49.3075 5.04187L30 22.5941L10.6923 5.04187C9.90736 4.3282 8.87089 3.95538 7.8109 4.00544Z" fill="white"/>
<path d="M41.1745 26.9331L36.8254 31.0667L49.2736 44.1481L53.6227 40.0145L41.1745 26.9331Z" fill="white"/>
<path d="M18.809 26.9502L6.36086 40.241L10.7425 44.34L23.1907 31.0493L18.809 26.9502Z" fill="white"/>
</svg>
