
<svg width="60" height="55" viewBox="0 0 60 55" fill="none" xmlns="http://www.w3.org/2000/svg">
<path d="M50.0212 18.4981L59.3289 27.2529C60.4535 28.3258 60.1325 29.1529 58.6073 29.1529H51.6259V52.0271C51.6259 53.5968 50.3421 55 48.8169 55H36.7003V38.978C36.7003 37.4084 35.3368 36.0051 33.8117 36.0051H26.1883C24.6632 36.0051 23.2997 37.4084 23.2997 38.978V55H11.1831C9.65788 55 8.29446 53.5968 8.29446 52.0271V29.1529H1.39265C-0.132526 29.1529 -0.453481 28.3258 0.671145 27.2529L27.8727 1.8181C28.9973 0.745208 30.9231 0.745208 32.1247 1.8181L38.3025 7.5155V2.9729C38.3025 1.40321 39.6659 0 41.1911 0H47.2096C48.7348 0 50.0186 1.40321 50.0186 2.9729L50.0212 18.4981Z" fill="white"/>
</svg>
