<svg width="50" height="50" viewBox="0 0 50 50" fill="none" xmlns="http://www.w3.org/2000/svg">
<path d="M13.5417 16.6665C15.2676 16.6665 16.6667 15.2674 16.6667 13.5415C16.6667 11.8156 15.2676 10.4165 13.5417 10.4165C11.8158 10.4165 10.4167 11.8156 10.4167 13.5415C10.4167 15.2674 11.8158 16.6665 13.5417 16.6665Z" fill="white"/>
<path d="M10.4167 20.8333C10.4167 19.6827 11.3494 18.75 12.5 18.75H14.5833C15.7339 18.75 16.6667 19.6827 16.6667 20.8333V37.5C16.6667 38.6506 15.7339 39.5833 14.5833 39.5833H12.5C11.3494 39.5833 10.4167 38.6506 10.4167 37.5V20.8333Z" fill="white"/>
<path d="M22.9167 39.5833H25C26.1506 39.5833 27.0833 38.6506 27.0833 37.5V28.125C27.0833 25 33.3333 22.9167 33.3333 27.0833V37.5008C33.3333 38.6515 34.266 39.5833 35.4167 39.5833H37.5C38.6506 39.5833 39.5833 38.6506 39.5833 37.5V25C39.5833 20.8333 36.4583 18.75 32.2917 18.75C28.125 18.75 27.0833 21.875 27.0833 21.875V20.8333C27.0833 19.6827 26.1506 18.75 25 18.75H22.9167C21.766 18.75 20.8333 19.6827 20.8333 20.8333V37.5C20.8333 38.6506 21.766 39.5833 22.9167 39.5833Z" fill="white"/>
<path fill-rule="evenodd" clip-rule="evenodd" d="M41.6667 2.0835C45.1186 2.0835 47.9167 4.88173 47.9167 8.3335V41.6668C47.9167 45.1187 45.1186 47.9168 41.6667 47.9168H8.33334C4.88157 47.9168 2.08334 45.1187 2.08334 41.6668V8.3335C2.08334 4.88173 4.88157 2.0835 8.33334 2.0835H41.6667ZM41.6667 6.25016C42.8173 6.25016 43.75 7.18291 43.75 8.3335V41.6668C43.75 42.8175 42.8173 43.7502 41.6667 43.7502H8.33334C7.18276 43.7502 6.25001 42.8175 6.25001 41.6668V8.3335C6.25001 7.18291 7.18276 6.25016 8.33334 6.25016H41.6667Z" fill="white"/>
</svg>
