
<svg width="150" height="109" viewBox="0 0 150 109" fill="none" xmlns="http://www.w3.org/2000/svg">
<path d="M66.367 40.7481C66.367 40.7481 68.3487 39.2619 71.0735 37.2802C73.7983 35.2985 75.2845 31.8306 81.4773 29.3535C87.67 26.8764 95.8444 26.6287 95.8444 26.6287C95.8444 26.6287 101.418 26.5048 102.409 27.9911C103.399 29.4774 104.886 30.2205 106.372 32.9453C107.858 35.6701 106.372 35.5214 106.372 35.5214C106.372 35.5214 95.6462 37.5279 95.0022 37.6517C93.2682 37.9738 91.6086 37.9242 90.0975 38.8903C92.4012 37.4536 105.926 44.9592 107.016 47.5106C107.784 49.2941 111.45 46.8417 112.54 46.4454C116.9 44.8601 121.21 44.8105 125.743 45.6527C131.391 46.6931 136.815 48.1051 142.537 48.7986C142.537 48.7986 142.29 55.7345 144.767 59.6978C144.767 59.6978 145.51 60.441 143.281 61.1841C141.051 61.9272 133.372 64.4043 133.372 64.4043C133.372 64.4043 129.904 65.1474 120.739 62.1749C116.479 60.7878 110.063 60.8621 108.304 65.9649C107.586 68.0208 107.784 70.2502 108.205 72.3805C109.295 77.8549 111.871 83.0072 115.587 87.1687C116.825 88.5559 123.266 98.9845 123.736 98.8358C123.736 98.8358 124.975 98.0927 121.507 87.6889C121.507 87.6889 118.287 81.2485 117.544 79.7623C116.801 78.276 120.268 76.542 120.268 76.542C120.268 76.542 129.681 75.0558 143.305 65.3951C143.305 65.3951 150.241 58.9547 149.994 48.0555C149.994 48.0555 149.994 46.817 148.012 46.3216C146.03 45.8261 115.81 41.1197 115.81 41.1197C115.81 41.1197 111.351 40.6243 110.856 39.8811C110.36 39.138 108.626 35.9178 108.626 35.9178L109.122 35.6701C109.122 35.6701 109.617 33.4407 107.388 28.4865C105.158 23.5323 99.7086 22.0461 99.7086 22.0461C99.7086 22.0461 89.5526 16.5965 78.9011 23.7801C78.9011 23.7801 80.1396 14.1194 82.6167 10.8992C85.0938 7.67897 90.048 2.97251 90.2957 2.7248C90.5434 2.47709 90.5434 0.247709 91.782 0C86.0103 1.16423 79.9415 1.38717 74.3433 4.16151C69.6616 6.48997 66.689 10.8744 64.6083 15.5066C63.989 16.869 60.8679 29.0562 60.0257 29.1801C54.8981 29.8489 49.8201 26.9012 44.6677 27.4461C40.7787 27.8672 37.5585 30.27 35.0814 33.193C33.9172 34.5802 32.7777 36.1655 31.985 37.8004C31.4401 38.9398 31.2171 41.9371 30.6226 42.6059C30.6226 42.6059 36.0722 36.4132 39.0447 36.6609C42.1659 36.9334 45.3861 37.305 48.4329 37.949C44.3705 39.5591 40.8282 41.7389 38.7475 45.7518C38.9457 45.2812 39.1438 44.8353 39.342 44.3647C36.8154 45.7518 33.6695 45.4793 30.9942 46.5693C26.2382 48.5014 25.9905 53.9262 23.0675 57.5675C21.1849 59.9208 19.0546 62.1997 16.5775 63.9089C15.5372 64.6025 8.6261 66.2869 8.57655 66.3612C8.57655 66.3612 8.20499 66.9557 9.36922 68.0209C10.5582 69.086 23.6868 67.1043 28.8887 64.6272L29.6318 65.3704C27.5263 63.2648 7.13984 80.3815 5.23248 82.6109C-1.52997 90.5128 -2.57034 102.849 7.53618 108.719C6.94168 104.236 4.83615 99.579 6.4958 95.3679C7.58572 92.6431 10.0628 90.7358 12.6142 89.299C18.7326 85.8559 24.851 82.388 31.1181 79.2173C31.1181 79.2173 35.0814 78.4742 39.2925 75.5017C39.2925 75.5017 48.21 63.8593 53.4119 63.6116C58.6137 63.3639 61.5862 62.3731 66.7881 64.6025C71.99 66.8318 78.6782 67.8227 80.4121 64.8502C82.1461 61.8777 83.88 58.4097 83.88 58.4097C82.3938 61.3823 78.3066 61.407 75.6561 61.0107C72.3616 60.5153 69.1909 59.2272 66.4661 57.2951C64.1624 55.6849 62.3046 52.2913 59.6541 51.6473C61.9578 49.9876 64.856 49.8886 67.3331 51.2014C69.4882 52.3409 71.3212 54.0501 73.5506 55.0409C77.613 56.8244 82.6415 51.2262 85.8617 54.2978C85.8617 54.2978 87.348 50.4831 80.9075 48.9968C74.4671 47.5106 65.0046 42.1105 66.367 40.7481Z" fill="white"/>
<path d="M51.2815 95.7147C50.3155 96.0368 49.3494 96.1854 48.3586 96.1854C46.3026 96.1854 44.742 95.6404 43.6769 94.5257C42.6365 93.411 42.0915 92.0486 42.0915 90.4385C42.0915 88.8036 42.6613 87.3669 43.8007 86.1284C44.9402 84.8899 46.5255 84.2953 48.5567 84.2953C49.2751 84.2953 49.9687 84.3697 50.6375 84.5431L50.4145 86.0045C49.4485 85.7568 48.6558 85.6577 48.0613 85.6577C46.6246 85.6577 45.5347 86.0789 44.7915 86.9458C44.0236 87.8128 43.6521 88.878 43.6521 90.1661C43.6521 91.4541 44.098 92.5688 44.9649 93.5349C45.8319 94.501 47.0705 94.9716 48.631 94.9716C48.9283 94.9716 49.3494 94.9221 49.9191 94.8478C49.82 94.2285 49.7705 93.5349 49.7705 92.7175C49.7705 92.0239 49.721 91.3551 49.6466 90.711H51.2567C51.2072 91.4789 51.1824 92.3211 51.1824 93.1633C51.2072 93.5597 51.232 94.4019 51.2815 95.7147Z" fill="white"/>
<path d="M55.7898 95.9624H54.1054C54.2045 94.0551 54.2293 92.0486 54.2293 89.9183C54.2293 87.8376 54.1797 86.0045 54.1054 84.4688H55.7898C55.7155 86.0789 55.666 87.8871 55.666 89.9183C55.666 92.0486 55.6907 94.0551 55.7898 95.9624Z" fill="white"/>
<path d="M69.1166 90.0174C69.1166 91.9248 68.5716 93.4358 67.457 94.5752C66.3423 95.7147 65.0542 96.2844 63.5927 96.2844C62.1808 96.2844 60.967 95.7642 59.9018 94.7239C58.8367 93.6835 58.3165 92.2715 58.3165 90.488C58.3165 88.5559 58.8615 87.0449 59.9762 85.9054C61.0908 84.766 62.3789 84.221 63.8404 84.221C65.2523 84.221 66.4661 84.7412 67.5313 85.7816C68.5964 86.8467 69.1166 88.2587 69.1166 90.0174ZM67.556 90.2403C67.556 88.7293 67.1597 87.5403 66.367 86.7229C65.5744 85.8807 64.6578 85.4843 63.6175 85.4843C62.6514 85.4843 61.7844 85.9302 61.0413 86.7972C60.2982 87.6642 59.9018 88.8532 59.9018 90.3146C59.9018 91.8504 60.2982 93.0147 61.1156 93.8569C61.9083 94.6991 62.8496 95.0954 63.8652 95.0954C64.8312 95.0954 65.6982 94.6496 66.4413 93.7578C67.1597 92.8413 67.556 91.677 67.556 90.2403Z" fill="white"/>
<path d="M79.9167 84.4688C79.9167 84.9642 79.1736 86.8715 77.6873 90.2156C76.2011 93.5597 75.4579 95.467 75.4579 95.9624H74.2937C74.2937 95.5166 73.6001 93.6092 72.1882 90.2404C70.7762 86.8963 70.0826 84.9642 70.0826 84.4688H71.7671C71.7671 84.9394 72.312 86.5743 73.3772 89.3734C74.4423 92.1725 74.9873 93.7826 74.9873 94.2037H75.0864C75.0864 93.7331 75.6313 92.1477 76.7212 89.3982C77.8112 86.6486 78.3561 85.0137 78.3561 84.4688H79.9167Z" fill="white"/>
<path d="M90.692 95.9624H88.8342C88.8342 95.5661 88.4626 94.3276 87.7195 92.2468H82.6167C81.8983 94.3028 81.5268 95.5413 81.5268 95.9624H79.7433C79.7433 95.7395 80.5112 93.8569 82.0222 90.3147C83.5332 86.7724 84.3011 84.8155 84.3011 84.4688H86.3571C86.3571 84.8155 87.0754 86.7477 88.5369 90.2404C89.9984 93.7331 90.692 95.6404 90.692 95.9624ZM87.2984 91.0826C85.9112 87.6394 85.2176 85.7816 85.2176 85.5834H85.1185C85.1185 85.7568 84.4002 87.6147 82.9635 91.0826H87.2984Z" fill="white"/>
<path d="M101.319 95.9624H100.08C100.08 95.8634 99.1141 94.4514 97.1819 91.7266C95.1507 88.878 94.0113 87.0697 93.7388 86.3266H93.6397C93.7388 87.7385 93.7883 88.9523 93.7883 89.9679C93.7883 91.9496 93.8379 93.9312 93.9122 95.9624H92.4259C92.525 94.0551 92.5746 92.0486 92.5746 89.9183C92.5746 87.8376 92.525 86.0293 92.4259 84.4688H94.1104C94.1104 84.6421 95.0021 85.9798 96.7856 88.5064C98.6434 91.1569 99.7086 92.8909 99.9563 93.6835H100.055C99.9563 92.2468 99.9067 91.033 99.9067 90.0174C99.9067 87.8376 99.8572 85.9798 99.7829 84.4688H101.294C101.195 86.0293 101.145 87.8376 101.145 89.9183C101.17 92.0239 101.22 94.0303 101.319 95.9624Z" fill="white"/>
<path d="M51.777 100.322C51.777 100.545 51.455 101.511 50.8109 103.245C50.1669 104.979 49.8448 105.945 49.8448 106.143H49.2751C49.2751 105.871 49.0522 105.128 48.5815 103.864C48.0613 102.502 47.7889 101.61 47.7146 101.239H47.665C47.6155 101.66 47.343 102.552 46.8971 103.914C46.476 105.202 46.2531 105.945 46.2531 106.143H45.6833C45.6833 105.846 45.3613 104.83 44.742 103.096C44.1228 101.363 43.8008 100.446 43.8008 100.322H44.643C44.643 100.446 44.8659 101.214 45.3118 102.651C45.7577 104.063 45.9806 104.954 45.9806 105.276H46.0301C46.0301 104.93 46.2531 104.063 46.7237 102.675C47.1944 101.288 47.4173 100.496 47.4173 100.347H48.21C48.21 100.545 48.4577 101.363 48.9283 102.824C49.399 104.285 49.6467 105.103 49.6467 105.276H49.6962C49.6962 104.979 49.9192 104.162 50.3403 102.799C50.7861 101.437 50.9843 100.619 50.9843 100.347H51.777V100.322Z" fill="white"/>
<path d="M55.8146 103.518C55.8146 103.641 55.8146 103.815 55.7898 104.038L52.7182 104.087C52.743 104.533 52.9164 104.88 53.2137 105.177C53.5109 105.474 53.932 105.623 54.4274 105.623C54.8733 105.623 55.2944 105.574 55.6908 105.45L55.6164 106.069C55.3192 106.193 54.8981 106.242 54.3531 106.242C53.5852 106.242 52.9907 106.019 52.5696 105.598C52.1733 105.177 51.9503 104.657 51.9503 104.063C51.9503 103.418 52.1237 102.849 52.4953 102.378C52.8669 101.907 53.3623 101.685 53.9816 101.685C54.5513 101.685 54.9972 101.858 55.2944 102.205C55.666 102.551 55.8146 102.997 55.8146 103.518ZM55.0715 103.542C55.0715 102.7 54.7247 102.279 54.0311 102.279C53.3128 102.279 52.8916 102.725 52.7678 103.592L55.0715 103.542Z" fill="white"/>
<path d="M60.9174 103.84C60.9174 104.484 60.7193 105.053 60.3477 105.549C59.9762 106.019 59.456 106.267 58.8119 106.267C58.267 106.267 57.8954 106.168 57.6972 105.97H57.6725L57.5486 106.143H56.8798C56.9293 105.103 56.9293 104.013 56.9293 102.799C56.9293 101.709 56.8798 100.743 56.7807 99.8515L57.6725 99.8019C57.6477 100.322 57.6229 101.14 57.6229 102.229H57.6477C57.9449 101.883 58.4156 101.734 59.0349 101.734C59.5798 101.734 60.0257 101.932 60.3725 102.353C60.744 102.774 60.9174 103.27 60.9174 103.84ZM60.1248 103.963C60.1248 103.518 60.0009 103.121 59.778 102.824C59.5303 102.502 59.2083 102.353 58.8119 102.353C58.267 102.353 57.8954 102.527 57.6477 102.849C57.6477 103.914 57.6725 104.781 57.722 105.425C57.9697 105.623 58.267 105.722 58.6633 105.722C59.1587 105.722 59.5303 105.549 59.7532 105.202C60.0009 104.855 60.1248 104.459 60.1248 103.963Z" fill="white"/>
<path d="M68.7946 103.022C68.7946 103.864 68.5221 104.608 67.9771 105.252C67.4322 105.896 66.6891 106.218 65.7478 106.218C65.4257 106.218 64.9303 106.193 64.1872 106.143C64.2367 105.227 64.2615 104.186 64.2615 103.072C64.2615 102.031 64.2367 101.09 64.1872 100.297H64.6826C64.8065 100.297 64.9799 100.297 65.2276 100.273C65.4753 100.273 65.6239 100.248 65.723 100.248C66.7881 100.248 67.556 100.496 68.0514 101.016C68.5469 101.536 68.7946 102.23 68.7946 103.022ZM68.0019 103.22C68.0019 102.552 67.779 102.007 67.3579 101.561C66.9368 101.115 66.2927 100.892 65.401 100.892C65.2771 100.892 65.1037 100.917 64.8808 100.941C64.9055 101.635 64.9055 102.353 64.9055 103.097C64.9055 103.914 64.9303 104.731 64.9551 105.549C65.2028 105.598 65.4257 105.623 65.6487 105.623C66.4413 105.623 67.0111 105.4 67.4074 104.93C67.8285 104.434 68.0019 103.889 68.0019 103.22Z" fill="white"/>
<path d="M73.501 103.518C73.501 103.641 73.501 103.815 73.4762 104.038L70.4046 104.087C70.4294 104.533 70.6028 104.88 70.9001 105.177C71.1973 105.474 71.6184 105.623 72.1138 105.623C72.5597 105.623 72.9808 105.574 73.3771 105.45L73.3028 106.069C73.0056 106.193 72.5845 106.242 72.0395 106.242C71.2716 106.242 70.6771 106.019 70.256 105.598C69.8597 105.177 69.6367 104.657 69.6367 104.063C69.6367 103.418 69.8101 102.849 70.1817 102.378C70.5533 101.907 71.0487 101.685 71.668 101.685C72.2377 101.685 72.6836 101.858 72.9808 102.205C73.3524 102.551 73.501 102.997 73.501 103.518ZM72.7579 103.542C72.7579 102.7 72.4111 102.279 71.7175 102.279C70.9991 102.279 70.578 102.725 70.4542 103.592L72.7579 103.542Z" fill="white"/>
<path d="M78.1332 101.907C78.1332 102.056 77.8359 102.75 77.2167 104.013C76.6222 105.276 76.3001 105.995 76.3001 106.143H75.7056C75.7056 105.945 75.4332 105.202 74.913 103.963C74.3928 102.7 74.1203 102.031 74.1203 101.907H74.9873C74.9873 102.056 75.1855 102.626 75.557 103.617C75.9534 104.607 76.1267 105.177 76.1267 105.326H76.1763C76.1763 105.177 76.3497 104.632 76.7212 103.691C77.0928 102.725 77.2662 102.155 77.2662 101.932H78.1332V101.907Z" fill="white"/>
<path d="M82.5919 103.518C82.5919 103.641 82.5919 103.815 82.5671 104.038L79.4956 104.087C79.5203 104.533 79.6937 104.88 79.991 105.177C80.2882 105.474 80.7093 105.623 81.2047 105.623C81.6506 105.623 82.0717 105.574 82.4681 105.45L82.3938 106.069C82.0965 106.193 81.6754 106.242 81.1304 106.242C80.3625 106.242 79.768 106.019 79.3469 105.598C78.9506 105.177 78.7277 104.657 78.7277 104.063C78.7277 103.418 78.9011 102.849 79.2726 102.378C79.6442 101.907 80.1396 101.685 80.7589 101.685C81.3286 101.685 81.7745 101.858 82.0717 102.205C82.4433 102.551 82.5919 102.997 82.5919 103.518ZM81.8488 103.542C81.8488 102.7 81.502 102.279 80.8084 102.279C80.0901 102.279 79.669 102.725 79.5451 103.592L81.8488 103.542Z" fill="white"/>
<path d="M84.4993 106.143H83.6323C83.6819 105.152 83.7066 104.038 83.7066 102.799C83.7066 101.585 83.6571 100.619 83.5828 99.8515L84.4993 99.8019C84.4498 100.619 84.425 101.61 84.425 102.799C84.4002 104.038 84.4498 105.152 84.4993 106.143Z" fill="white"/>
<path d="M89.825 103.889C89.825 104.657 89.6021 105.252 89.1562 105.673C88.7104 106.094 88.1902 106.317 87.5957 106.317C87.0507 106.317 86.5553 106.119 86.159 105.747C85.7626 105.375 85.5645 104.83 85.5645 104.137C85.5645 103.369 85.7874 102.774 86.2333 102.329C86.6791 101.907 87.1993 101.685 87.7938 101.685C88.3388 101.685 88.8342 101.883 89.2305 102.254C89.6269 102.651 89.825 103.196 89.825 103.889ZM89.0324 104.063C89.0324 103.592 88.9085 103.171 88.6856 102.824C88.4626 102.452 88.1159 102.279 87.6948 102.279C87.2736 102.279 86.9269 102.452 86.7039 102.799C86.481 103.146 86.3571 103.542 86.3571 103.988C86.3571 104.459 86.481 104.88 86.7039 105.227C86.9269 105.598 87.2736 105.772 87.7195 105.772C88.1406 105.772 88.4874 105.598 88.7104 105.252C88.9333 104.905 89.0324 104.508 89.0324 104.063Z" fill="white"/>
<path d="M94.903 103.84C94.903 104.484 94.7296 105.053 94.3581 105.524C93.9865 106.019 93.4663 106.242 92.8223 106.242C92.2773 106.242 91.9058 106.143 91.7324 105.945H91.6828C91.6828 106.763 91.6828 107.506 91.7076 108.175H90.8902C90.9645 107.382 90.9892 106.391 90.9892 105.227C90.9892 103.79 90.9149 102.675 90.7663 101.883L91.559 101.759L91.6333 102.205H91.6828C91.9801 101.858 92.4507 101.709 93.0948 101.709C93.6645 101.709 94.1104 101.907 94.4572 102.329C94.7544 102.774 94.903 103.27 94.903 103.84ZM94.1104 103.963C94.1104 103.518 93.9865 103.146 93.7636 102.824C93.5406 102.502 93.1938 102.353 92.7727 102.353C92.2278 102.353 91.8562 102.527 91.6085 102.849C91.658 103.84 91.6828 104.707 91.6828 105.425C91.9305 105.623 92.2278 105.722 92.6241 105.722C93.1195 105.722 93.4911 105.549 93.7388 105.202C93.9865 104.855 94.1104 104.434 94.1104 103.963Z" fill="white"/>
<path d="M99.6096 103.518C99.6096 103.641 99.6096 103.815 99.5848 104.038L96.5132 104.087C96.538 104.533 96.7114 104.88 97.0086 105.177C97.3059 105.474 97.727 105.623 98.2224 105.623C98.6683 105.623 99.0894 105.574 99.4857 105.45L99.4114 106.069C99.1141 106.193 98.693 106.242 98.1481 106.242C97.3802 106.242 96.7857 106.019 96.3646 105.598C95.9682 105.177 95.7453 104.657 95.7453 104.063C95.7453 103.418 95.9187 102.849 96.2903 102.378C96.6618 101.907 97.1572 101.685 97.7765 101.685C98.3462 101.685 98.7921 101.858 99.0894 102.205C99.4609 102.551 99.6096 102.997 99.6096 103.518ZM98.8664 103.542C98.8664 102.7 98.5196 102.279 97.8261 102.279C97.1077 102.279 96.6866 102.725 96.5627 103.592L98.8664 103.542Z" fill="white"/>
<path d="M103.35 101.908L103.152 102.626C102.929 102.527 102.706 102.477 102.508 102.477C101.938 102.477 101.591 102.75 101.418 103.27C101.418 104.632 101.418 105.598 101.443 106.143H100.65C100.699 105.202 100.724 104.459 100.724 103.939C100.724 103.22 100.65 102.552 100.526 101.908L101.319 101.784C101.368 102.106 101.393 102.329 101.393 102.452H101.418C101.74 101.982 102.111 101.734 102.557 101.734C102.755 101.759 103.028 101.808 103.35 101.908Z" fill="white"/>
<path d="M39.7383 63.7603C39.7383 63.686 39.7383 63.6117 39.7383 63.5373C39.1438 63.5373 38.5245 63.5126 37.9053 63.5126C37.8805 63.5869 37.8557 63.6612 37.8557 63.7355C38.4502 63.7603 39.0447 63.7603 39.6392 63.7603C39.664 63.7851 39.7135 63.7603 39.7383 63.7603Z" fill="white"/>
<path d="M149.969 48.0555C149.969 48.0555 149.969 46.8169 147.987 46.3215C146.005 45.8261 115.785 41.1196 115.785 41.1196C115.785 41.1196 111.326 40.6242 110.831 39.8811C110.335 39.138 108.601 35.9178 108.601 35.9178L109.097 35.67C109.097 35.67 109.592 33.4407 107.363 28.4865C106.644 26.9012 105.604 25.6626 104.514 24.7213C104.465 24.8699 104.39 25.0186 104.266 25.1424C103.523 26.0589 102.632 26.8021 101.666 27.4213C101.988 27.57 102.26 27.7681 102.409 27.9911C103.399 29.4773 104.886 30.2204 106.372 32.9452C107.858 35.67 106.372 35.5214 106.372 35.5214C106.372 35.5214 95.6462 37.5279 95.0021 37.6517C94.5067 37.7508 94.0113 37.8003 93.5159 37.8747C93.4168 38.2958 93.3425 38.7416 93.2434 39.1627C98.049 40.6738 106.174 45.5289 107.016 47.5105C107.784 49.294 111.45 46.8417 112.54 46.4454C116.9 44.86 121.21 44.8105 125.743 45.6527C131.391 46.6931 136.815 48.105 142.537 48.7986C142.537 48.7986 142.29 55.7345 144.767 59.6978C144.767 59.6978 145.51 60.4409 143.281 61.1841C141.051 61.9272 133.372 64.4043 133.372 64.4043C133.372 64.4043 129.904 65.1474 120.739 62.1749C116.478 60.7877 110.063 60.862 108.304 65.9648C107.586 68.0208 107.784 70.2502 108.205 72.3805C109.295 77.8549 111.871 83.0072 115.587 87.1687C116.825 88.5559 123.266 98.9844 123.736 98.8358C123.736 98.8358 124.975 98.0927 121.507 87.6889C121.507 87.6889 118.287 81.2485 117.544 79.7622C116.801 78.276 120.268 76.542 120.268 76.542C120.268 76.542 129.681 75.0558 143.305 65.3951C143.281 65.3951 150.216 58.9547 149.969 48.0555Z" fill="white"/>
<path d="M75.6066 61.0603C72.312 60.5648 69.1414 59.2768 66.4166 57.3446C64.1129 55.7345 62.255 52.3409 59.6046 51.6969C59.7284 51.6226 59.8275 51.5482 59.9514 51.4739C56.7559 50.1611 52.8669 50.4831 49.498 50.4583C46.3026 50.4335 42.9337 50.5574 39.8126 49.7647C38.7227 49.4923 37.5089 49.0464 36.741 48.1794C36.097 47.461 35.8988 46.4454 35.8493 45.4794C34.1896 45.7766 32.4804 45.95 30.9446 46.5941C26.1886 48.5262 25.9409 53.951 23.018 57.5923C21.1354 59.9456 19.0051 62.2245 16.528 63.9337C15.4876 64.6273 8.57654 66.3117 8.52699 66.386C8.52699 66.386 8.15543 66.9805 9.31966 68.0456C10.5087 69.1108 23.6372 67.1291 28.8391 64.652L29.5822 65.3952C27.4767 63.2896 7.09028 80.4063 5.18292 82.6357C-1.57953 90.5376 -2.6199 102.874 7.48662 108.744C6.89212 104.261 4.78659 99.6038 6.44624 95.3927C7.53616 92.6679 10.0132 90.7606 12.5646 89.3238C18.6831 85.8807 24.8015 82.4128 31.0685 79.2421C31.0685 79.2421 35.0318 78.499 39.2429 75.5265C39.2429 75.5265 48.1604 63.8841 53.3623 63.6364C58.5642 63.3887 61.5367 62.3979 66.7386 64.6273C71.9405 66.8566 78.6286 67.8475 80.3626 64.875C82.0965 61.9025 83.8305 58.4345 83.8305 58.4345C82.3442 61.4318 78.257 61.4566 75.6066 61.0603Z" fill="#F5F5F5"/>
</svg>
