<svg width="39" height="44" viewBox="0 0 39 44" fill="none" xmlns="http://www.w3.org/2000/svg">
<path d="M33.5892 0C33.5892 1.66394 33.5892 3.32749 33.5892 4.99104C31.7582 5.22165 29.8862 5.22165 28.0558 4.99104C28.0558 3.32749 28.0558 1.66394 28.0558 0H22.2778C22.2778 1.69516 22.2778 3.39014 22.2778 5.0853C20.4471 5.31591 18.5748 5.31591 16.7441 5.0853C16.7441 3.39033 16.7441 1.69516 16.7441 0H10.9664C10.9664 1.66394 10.9664 3.32749 10.9664 4.99104C9.13545 5.22165 7.26344 5.22165 5.43274 4.99104C5.43274 3.32749 5.43274 1.66394 5.43274 0H0V9.98363L4.71039 14.284C4.71039 23.9284 4.71039 33.5734 4.71039 43.2176C7.69657 43.5935 10.7033 43.8534 13.718 44V36.2587C13.718 36.2587 14.272 30.4044 19.5722 28.303C25.2817 30.4044 25.2817 36.2587 25.2817 36.2587V44C28.2967 43.8536 31.3037 43.5935 34.2896 43.2176C34.2896 33.5732 34.2896 23.9284 34.2896 14.2838L39 9.98363V0H33.5892ZM22.3563 20.8655C20.4665 21.1036 18.534 21.1036 16.6446 20.8655C16.6446 19.5557 16.6446 18.2459 16.6446 16.9359C16.644 16.9348 16.9166 14.0869 19.5362 13.0066C22.3577 14.084 22.3563 16.9291 22.3563 16.9359C22.3563 18.2459 22.3563 19.5557 22.3563 20.8655Z" fill="white"/>
</svg>
