<svg width="250" height="300" viewBox="0 0 250 300" fill="none" xmlns="http://www.w3.org/2000/svg">
<path d="M133.594 175C133.594 154.859 149.516 138.547 169.14 138.547C188.782 138.547 204.688 154.844 204.688 175C204.688 195.14 188.782 211.453 169.14 211.453C149.531 211.453 133.594 195.157 133.594 175Z" fill="#1ABCFE"/>
<path d="M62.5 247.922C62.5 227.782 78.4218 211.453 98.0468 211.453H133.594V247.922C133.594 268.047 117.672 284.375 98.0468 284.375C78.4218 284.375 62.5 268.047 62.5 247.922Z" fill="#0ACF83"/>
<path d="M133.594 65.625V138.547H169.14C188.782 138.547 204.688 122.219 204.688 102.078C204.688 81.9532 188.782 65.625 169.14 65.625H133.594Z" fill="#FF7262"/>
<path d="M62.5 102.078C62.5 122.219 78.4218 138.547 98.0468 138.547H133.594V65.625H98.0468C78.4218 65.625 62.5 81.9532 62.5 102.078Z" fill="#F24E1E"/>
<path d="M62.5 175C62.5 195.14 78.4218 211.453 98.0468 211.453H133.594V138.547H98.0468C78.4218 138.547 62.5 154.844 62.5 175Z" fill="#A259FF"/>
<path d="M63.7329 38.3335V1.96982H85.5369V5.87607H68.1362V18.163H83.9034V22.0693H68.1362V38.3335H63.7329ZM97.4821 1.96982V38.3335H93.0786V1.96982H97.4821ZM131.169 13.3335C130.778 12.1379 130.263 11.0666 129.624 10.1197C128.997 9.16087 128.245 8.3441 127.369 7.66939C126.505 6.99467 125.523 6.47975 124.422 6.12464C123.321 5.76954 122.114 5.59197 120.8 5.59197C118.645 5.59197 116.686 6.14832 114.923 7.261C113.159 8.3737 111.756 10.0131 110.714 12.1793C109.673 14.3455 109.152 17.003 109.152 20.1516C109.152 23.3003 109.679 25.9578 110.732 28.124C111.786 30.2901 113.212 31.9296 115.011 33.0423C116.811 34.155 118.835 34.7113 121.084 34.7113C123.167 34.7113 125.002 34.2675 126.588 33.3796C128.186 32.48 129.429 31.2135 130.317 29.58C131.216 27.9346 131.666 25.9991 131.666 23.7738L133.016 24.058H122.078V20.1516H135.928V24.058C135.928 27.0526 135.288 29.6568 134.01 31.8705C132.743 34.084 130.991 35.8003 128.754 37.0195C126.529 38.227 123.972 38.8306 121.084 38.8306C117.864 38.8306 115.035 38.0731 112.597 36.558C110.17 35.0428 108.276 32.8885 106.915 30.0948C105.565 27.3013 104.891 23.9868 104.891 20.1516C104.891 17.2753 105.275 14.6888 106.045 12.3924C106.826 10.0842 107.927 8.1192 109.347 6.49752C110.768 4.87584 112.449 3.63294 114.39 2.76882C116.331 1.90472 118.468 1.47266 120.8 1.47266C122.717 1.47266 124.505 1.76267 126.162 2.34269C127.831 2.91087 129.316 3.7217 130.619 4.77522C131.932 5.81689 133.027 7.0657 133.903 8.52167C134.779 9.96579 135.383 11.5697 135.714 13.3335H131.169ZM143.469 1.96982H148.725L161.083 32.1545H161.509L173.867 1.96982H179.123V38.3335H175.003V10.7056H174.648L163.285 38.3335H159.307L147.944 10.7056H147.589V38.3335H143.469V1.96982ZM189.443 38.3335H184.827L198.178 1.96982H202.725L216.077 38.3335H211.46L200.593 7.72265H200.31L189.443 38.3335ZM191.148 24.129H209.755V28.0351H191.148V24.129Z" fill="#DE0D00"/>
</svg>
