<svg width="250" height="300" viewBox="0 0 250 300" fill="none" xmlns="http://www.w3.org/2000/svg">
<g clip-path="url(#clip0_98_14)">
<rect width="250" height="300" fill="black"/>
<mask id="mask0_98_14" style="mask-type:luminance" maskUnits="userSpaceOnUse" x="0" y="51" width="250" height="249">
<path d="M250 51.7729H0V300H250V51.7729Z" fill="white"/>
</mask>
<g mask="url(#mask0_98_14)">
<path fill-rule="evenodd" clip-rule="evenodd" d="M125 51.7729C194.037 51.7729 250 108.74 250 179.025C250 235.237 214.225 282.921 164.587 299.764C158.25 301.017 156 297.043 156 293.655C156 289.459 156.15 275.758 156.15 258.73C156.15 246.864 152.15 239.12 147.663 235.174C175.5 232.021 204.75 221.259 204.75 172.384C204.75 158.483 199.9 147.14 191.875 138.228C193.175 135.013 197.462 122.07 190.65 104.545C190.65 104.545 180.175 101.135 156.312 117.593C146.325 114.776 135.625 113.358 125 113.308C114.375 113.358 103.688 114.776 93.7129 117.593C69.825 101.135 59.325 104.545 59.325 104.545C52.5375 122.07 56.825 135.013 58.1125 138.228C50.125 147.14 45.2376 158.483 45.2376 172.384C45.2376 221.135 74.425 232.062 102.188 235.276C98.6129 238.454 95.375 244.059 94.25 252.288C87.125 255.54 69.025 261.167 57.875 241.718C57.875 241.718 51.2625 229.492 38.7125 228.598C38.7125 228.598 26.525 228.437 37.8625 236.331C37.8625 236.331 46.05 240.241 51.7375 254.948C51.7375 254.948 59.0751 277.66 93.85 269.965C93.9129 280.602 94.025 290.626 94.025 293.655C94.025 297.018 91.725 300.955 85.4871 299.776C35.8124 282.958 0 235.249 0 179.025C0 108.74 55.975 51.7729 125 51.7729Z" fill="white"/>
</g>
<path d="M74.9543 8.87572C74.8107 8.34686 74.5993 7.8809 74.32 7.47792C74.0415 7.06659 73.6986 6.71818 73.2929 6.43275C72.8872 6.14732 72.4222 5.93324 71.8979 5.79052C71.3737 5.63941 70.7987 5.56386 70.173 5.56386C68.9132 5.56386 67.8225 5.86608 66.9009 6.47053C65.9877 7.07498 65.2817 7.95643 64.7829 9.11501C64.284 10.2652 64.0346 11.6629 64.0346 13.3083C64.0346 14.9622 64.2756 16.3726 64.7575 17.5395C65.2395 18.7064 65.937 19.5963 66.8502 20.2091C67.7633 20.822 68.871 21.1284 70.173 21.1284C71.3229 21.1284 72.295 20.9437 73.09 20.5743C73.8936 20.1966 74.5022 19.6635 74.9165 18.9751C75.3307 18.2866 75.5379 17.4765 75.5379 16.5447L76.7043 16.6832H70.3886V12.1372H81.5872V15.5498C81.5872 17.8585 81.0929 19.8356 80.1036 21.481C79.1229 23.1264 77.77 24.3899 76.045 25.2714C74.3286 26.1529 72.3543 26.5937 70.1223 26.5937C67.645 26.5937 65.4677 26.0605 63.5907 24.9944C61.7137 23.9282 60.251 22.4087 59.2025 20.4358C58.1541 18.4546 57.6299 16.104 57.6299 13.3839C57.6299 11.2683 57.947 9.39203 58.5811 7.75501C59.2152 6.10954 60.0988 4.71595 61.2317 3.57421C62.3732 2.43247 63.6922 1.56778 65.1887 0.98012C66.6937 0.392462 68.3129 0.0986328 70.0462 0.0986328C71.5515 0.0986328 72.9507 0.312709 74.2443 0.740858C75.5465 1.16901 76.6965 1.77346 77.6936 2.55421C78.7 3.33495 79.5157 4.26262 80.1415 5.33719C80.7672 6.41176 81.1565 7.59125 81.3086 8.87572H74.9543ZM91.5657 0.451229V26.241H85.2879V0.451229H91.5657ZM94.6572 5.51349V0.451229H116.611V5.51349H108.734V26.241H102.546V5.51349H94.6572ZM119.676 26.241V0.451229H125.954V10.8024H136.189V0.451229H142.454V26.241H136.189V15.8773H125.954V26.241H119.676ZM162.106 0.451229H168.371V17.0861C168.371 19.0086 167.911 20.6835 166.989 22.1106C166.067 23.5294 164.782 24.6292 163.134 25.4099C161.485 26.1822 159.57 26.5684 157.389 26.5684C155.181 26.5684 153.254 26.1822 151.605 25.4099C149.956 24.6292 148.675 23.5294 147.762 22.1106C146.849 20.6835 146.392 19.0086 146.392 17.0861V0.451229H152.67V16.5447C152.67 17.4346 152.865 18.2279 153.254 18.9247C153.651 19.6215 154.205 20.1671 154.915 20.5618C155.626 20.9563 156.45 21.1536 157.389 21.1536C158.326 21.1536 159.147 20.9563 159.849 20.5618C160.559 20.1671 161.113 19.6215 161.51 18.9247C161.908 18.2279 162.106 17.4346 162.106 16.5447V0.451229ZM172.306 26.241V0.451229H183.137C185.082 0.451229 186.709 0.72407 188.02 1.26975C189.339 1.81543 190.329 2.57939 190.988 3.56162C191.656 4.54385 191.99 5.68139 191.99 6.97424C191.99 7.9565 191.783 8.83374 191.368 9.60608C190.954 10.37 190.383 11.0039 189.656 11.5076C188.929 12.0113 188.088 12.3639 187.132 12.5654V12.8172C188.181 12.8676 189.149 13.1488 190.036 13.661C190.933 14.173 191.651 14.8866 192.193 15.8017C192.734 16.7083 193.004 17.783 193.004 19.0254C193.004 20.4106 192.649 21.6489 191.939 22.7403C191.229 23.8232 190.201 24.6796 188.857 25.3092C187.513 25.9304 185.881 26.241 183.961 26.241H172.306ZM178.584 21.2166H182.465C183.826 21.2166 184.828 20.9605 185.471 20.4484C186.122 19.9363 186.447 19.2227 186.447 18.3076C186.447 17.6444 186.291 17.0736 185.978 16.595C185.665 16.1081 185.221 15.7345 184.646 15.4743C184.071 15.2057 183.382 15.0713 182.579 15.0713H178.584V21.2166ZM178.584 11.0542H182.059C182.744 11.0542 183.353 10.9409 183.886 10.7142C184.418 10.4876 184.832 10.1602 185.129 9.73203C185.433 9.30388 185.585 8.78757 185.585 8.18317C185.585 7.31842 185.276 6.63843 184.659 6.14312C184.042 5.64781 183.209 5.40016 182.161 5.40016H178.584V11.0542Z" fill="white"/>
</g>
<defs>
<clipPath id="clip0_98_14">
<rect width="250" height="300" fill="white"/>
</clipPath>
</defs>
</svg>
