<svg width="250" height="300" viewBox="0 0 250 300" fill="none" xmlns="http://www.w3.org/2000/svg">
<g clip-path="url(#clip0_98_9)">
<path d="M21.4252 273.285L0.710205 56.8438H249.29L228.575 273.285L125 299.258L21.4252 273.285Z" fill="#E44D26"/>
<path d="M228.575 74.1589H125V286.271L207.86 264.627L228.575 74.1589Z" fill="#F16529"/>
<path d="M57.6764 182.379L47.319 100.132H207.86L202.681 126.104H78.3913L83.5701 156.407H197.502L187.145 238.654L125 255.97L62.8551 238.654L57.6764 195.366H88.7489L93.9276 217.01L125 225.668L156.072 217.01L161.251 182.379H57.6764Z" fill="white"/>
<path d="M45.2583 34.8285V0.287842H55.2459V14.1513H71.5287V0.287842H81.496V34.8285H71.5287V20.9482H55.2459V34.8285H45.2583ZM86.4091 7.0678V0.287842H121.335V7.0678H108.806V34.8285H98.9592V7.0678H86.4091ZM126.213 0.287842H138.581L149.074 21.6734H149.558L160.05 0.287842H172.419V34.8285H162.693V13.6116H162.35L152.423 34.6092H146.208L136.281 13.4936H135.938V34.8285H126.213V0.287842ZM178.648 34.8285V0.287842H188.635V28.0486H205.826V34.8285H178.648Z" fill="#E44D26"/>
</g>
<defs>
<clipPath id="clip0_98_9">
<rect width="250" height="300" fill="white"/>
</clipPath>
</defs>
</svg>
