<svg width="250" height="300" viewBox="0 0 250 300" fill="none" xmlns="http://www.w3.org/2000/svg">
<path d="M35.1563 274.609L14.6484 50H234.864L214.844 274.609L125 300" fill="#264DE4"/>
<path d="M125 68.0664V280.469L197.754 260.449L214.844 68.0664" fill="#2965F1"/>
<path d="M55.6641 95.8987H125V123.242H58.1055M60.5468 151.563H125V179.394H62.9883M64.4531 193.067H91.7971L93.75 215.039L125 223.34V252.149L67.8711 236.524" fill="#EBEBEB"/>
<path d="M125 151.563V179.394H158.691L155.274 215.039L125 223.34V252.149L181.152 236.524L193.848 95.8987H125V123.242H164.063L161.377 151.563H125Z" fill="white"/>
<path d="M111.057 12.2666H103.448C103.346 11.4853 103.139 10.7802 102.824 10.1511C102.509 9.52211 102.093 8.98432 101.576 8.53789C101.058 8.09146 100.444 7.75161 99.7342 7.51825C99.0342 7.27475 98.2578 7.15296 97.4056 7.15296C95.8942 7.15296 94.5899 7.52332 93.4942 8.26396C92.4085 9.00461 91.5714 10.075 90.9835 11.4752C90.4049 12.8754 90.1156 14.5697 90.1156 16.5584C90.1156 18.6282 90.4099 20.3632 90.9985 21.7634C91.5971 23.1534 92.4342 24.2035 93.5099 24.9137C94.5949 25.6138 95.8785 25.9638 97.3599 25.9638C98.1921 25.9638 98.9478 25.8573 99.6278 25.6442C100.318 25.4312 100.921 25.1217 101.439 24.7159C101.966 24.2999 102.398 23.7977 102.732 23.2092C103.077 22.6105 103.316 21.9358 103.448 21.185L111.057 21.2307C110.926 22.6105 110.525 23.9701 109.855 25.3094C109.196 26.6487 108.287 27.8713 107.131 28.9772C105.974 30.073 104.564 30.9456 102.9 31.595C101.246 32.2443 99.3485 32.569 97.2078 32.569C94.3871 32.569 91.8606 31.95 89.6285 30.7122C87.4064 29.4642 85.6514 27.6481 84.3628 25.2637C83.0742 22.8794 82.4299 19.9776 82.4299 16.5584C82.4299 13.129 83.0842 10.2222 84.3935 7.83782C85.7021 5.45349 87.4728 3.64241 89.7049 2.40459C91.9371 1.16676 94.4378 0.547852 97.2078 0.547852C99.0949 0.547852 100.84 0.811649 102.444 1.33925C104.046 1.8567 105.456 2.61766 106.674 3.62212C107.891 4.61644 108.881 5.83905 109.642 7.28996C110.403 8.74082 110.875 10.3997 111.057 12.2666ZM132.216 10.3185C132.114 9.20246 131.663 8.33496 130.861 7.71611C130.07 7.08702 128.939 6.77248 127.467 6.77248C126.494 6.77248 125.681 6.89931 125.032 7.15296C124.383 7.40661 123.896 7.75668 123.571 8.20311C123.246 8.63939 123.079 9.14161 123.069 9.70982C123.049 10.1765 123.14 10.5874 123.343 10.9425C123.556 11.2977 123.861 11.6122 124.256 11.8861C124.662 12.1499 125.149 12.3832 125.717 12.5862C126.286 12.7891 126.924 12.9667 127.635 13.1189L130.314 13.7277C131.856 14.0625 133.215 14.5089 134.392 15.067C135.579 15.625 136.574 16.2895 137.375 17.0606C138.186 17.8317 138.801 18.7195 139.216 19.724C139.633 20.7285 139.846 21.8547 139.856 23.1027C139.846 25.071 139.349 26.7603 138.364 28.1706C137.38 29.581 135.965 30.6615 134.118 31.4123C132.281 32.1631 130.065 32.5385 127.467 32.5385C124.86 32.5385 122.587 32.1479 120.649 31.3667C118.711 30.5854 117.204 29.3983 116.129 27.8054C115.053 26.2124 114.501 24.1984 114.47 21.7634H121.684C121.745 22.7678 122.014 23.6049 122.491 24.2745C122.968 24.9442 123.622 25.4515 124.454 25.7965C125.296 26.1414 126.27 26.3139 127.376 26.3139C128.391 26.3139 129.253 26.1769 129.964 25.903C130.684 25.629 131.236 25.2485 131.622 24.7615C132.008 24.2745 132.206 23.7165 132.216 23.0874C132.206 22.499 132.023 21.9967 131.668 21.5807C131.313 21.1546 130.765 20.7893 130.024 20.485C129.294 20.1704 128.36 19.8812 127.224 19.6175L123.967 18.8565C121.268 18.2376 119.143 17.2382 117.59 15.8583C116.038 14.4683 115.266 12.5912 115.277 10.2272C115.266 8.29946 115.784 6.61015 116.829 5.15926C117.874 3.70836 119.32 2.57707 121.166 1.76538C123.014 0.953699 125.119 0.547852 127.483 0.547852C129.897 0.547852 131.993 0.95877 133.768 1.78061C135.553 2.59229 136.939 3.73373 137.923 5.20491C138.907 6.6761 139.409 8.38068 139.43 10.3185H132.216ZM160.508 10.3185C160.406 9.20246 159.955 8.33496 159.154 7.71611C158.362 7.08702 157.231 6.77248 155.76 6.77248C154.786 6.77248 153.974 6.89931 153.325 7.15296C152.676 7.40661 152.188 7.75668 151.863 8.20311C151.539 8.63939 151.371 9.14161 151.361 9.70982C151.341 10.1765 151.433 10.5874 151.636 10.9425C151.848 11.2977 152.153 11.6122 152.548 11.8861C152.954 12.1499 153.441 12.3832 154.009 12.5862C154.578 12.7891 155.217 12.9667 155.927 13.1189L158.606 13.7277C160.148 14.0625 161.508 14.5089 162.684 15.067C163.871 15.625 164.866 16.2895 165.667 17.0606C166.479 17.8317 167.093 18.7195 167.509 19.724C167.925 20.7285 168.138 21.8547 168.148 23.1027C168.138 25.071 167.641 26.7603 166.656 28.1706C165.673 29.581 164.257 30.6615 162.411 31.4123C160.574 32.1631 158.357 32.5385 155.76 32.5385C153.152 32.5385 150.879 32.1479 148.941 31.3667C147.004 30.5854 145.497 29.3983 144.421 27.8054C143.346 26.2124 142.793 24.1984 142.763 21.7634H149.976C150.037 22.7678 150.306 23.6049 150.783 24.2745C151.26 24.9442 151.914 25.4515 152.746 25.7965C153.589 26.1414 154.563 26.3139 155.669 26.3139C156.683 26.3139 157.546 26.1769 158.256 25.903C158.976 25.629 159.529 25.2485 159.915 24.7615C160.3 24.2745 160.498 23.7165 160.508 23.0874C160.498 22.499 160.316 21.9967 159.96 21.5807C159.605 21.1546 159.057 20.7893 158.316 20.485C157.586 20.1704 156.653 19.8812 155.516 19.6175L152.259 18.8565C149.561 18.2376 147.435 17.2382 145.883 15.8583C144.33 14.4683 143.559 12.5912 143.569 10.2272C143.559 8.29946 144.076 6.61015 145.121 5.15926C146.166 3.70836 147.612 2.57707 149.459 1.76538C151.306 0.953699 153.411 0.547852 155.775 0.547852C158.19 0.547852 160.285 0.95877 162.061 1.78061C163.846 2.59229 165.231 3.73373 166.216 5.20491C167.199 6.6761 167.701 8.38068 167.722 10.3185H160.508Z" fill="#264DE4"/>
</svg>
