<svg width="250" height="300" viewBox="0 0 250 300" fill="none" xmlns="http://www.w3.org/2000/svg">
<g clip-path="url(#clip0_98_6)">
<rect width="250" height="300" fill="black"/>
<path fill-rule="evenodd" clip-rule="evenodd" d="M9.64308 50.4065C9.37537 50.4469 9.39512 50.7817 9.41432 51.1169C9.41432 133.787 9.41432 216.445 9.41432 299.114C88.9615 299.667 169.486 299.193 249.412 299.35C249.412 216.367 249.412 133.389 249.412 50.4065C169.492 50.4065 89.5634 50.4065 9.64308 50.4065ZM131.237 270.48C125.684 276.288 116.922 279.708 106.142 279.708C88.4615 279.708 78.6457 270.772 72.3795 258.41C78.4113 254.415 84.5751 250.554 90.8588 246.815C93.4215 254.252 102.077 262.612 111.846 257.465C118.038 254.202 117.323 244.305 117.323 233.564C117.323 211.261 117.323 185.532 117.323 165.411C117.302 165.076 117.284 164.741 117.549 164.702C124.926 164.702 132.303 164.702 139.679 164.702C139.679 182.626 139.679 202.902 139.679 221.967C139.679 242.723 141.108 260.161 131.237 270.48ZM230.248 249.894C228.991 269.328 213.694 279.647 193.063 279.708C172.837 279.768 159.892 270.444 151.997 256.044C157.673 251.991 164.104 248.727 170.021 244.924C174.755 252.603 182.954 259.985 195.115 258.885C202.692 258.199 211.487 251.793 206.522 242.083C204.114 237.376 198.295 234.985 193.063 232.618C176.458 225.103 156.978 218.21 158.841 191.206C159.464 182.185 163.469 175.846 168.652 171.328C173.965 166.699 181.08 163.597 190.553 163.283C207.757 162.712 217.195 170.65 223.632 181.742C218.154 186.074 212.118 189.834 206.066 193.573C204.079 187.241 194.491 181.072 186.446 184.818C182.788 186.52 179.501 191.523 181.428 197.595C183.147 203.011 190.159 205.976 195.8 208.482C212.874 216.064 231.954 223.473 230.248 249.894Z" fill="white"/>
<path d="M13.2781 0.517476H20.0687V20.9582C20.0594 22.8733 19.6188 24.5478 18.7467 25.9817C17.8747 27.406 16.6688 28.5127 15.1288 29.3019C13.5982 30.091 11.8263 30.4856 9.81328 30.4856C8.03209 30.4856 6.41332 30.1632 4.95687 29.5184C3.5097 28.8736 2.35475 27.8728 1.49201 26.5158C0.638551 25.1589 0.216459 23.4218 0.225736 21.3046H7.08589C7.11372 22.0649 7.25287 22.7145 7.50334 23.2534C7.76309 23.7827 8.12025 24.1821 8.5748 24.4516C9.02934 24.721 9.57205 24.8557 10.2029 24.8557C10.8616 24.8557 11.4181 24.7114 11.8727 24.4227C12.3272 24.1243 12.6705 23.6865 12.9024 23.1091C13.1436 22.5317 13.2688 21.8147 13.2781 20.9582V0.517476ZM30.5572 30.0814H23.1543L32.7697 0.517476H41.9398L51.5551 30.0814H44.1522L37.4591 7.9662H37.2365L30.5572 30.0814ZM29.5692 18.4464H45.0428V23.8742H29.5692V18.4464ZM57.2673 0.517476L63.6404 22.1708H63.8769L70.25 0.517476H77.959L68.3437 30.0814H59.1736L49.5583 0.517476H57.2673ZM82.9444 30.0814H75.5413L85.1568 0.517476H94.3268L103.942 30.0814H96.5392L89.8456 7.9662H89.6231L82.9444 30.0814ZM81.9561 18.4464H97.4295V23.8742H81.9561V18.4464ZM121.535 9.38092C121.441 8.3223 121.028 7.49945 120.295 6.91241C119.572 6.31574 118.538 6.01741 117.193 6.01741C116.302 6.01741 115.56 6.1377 114.966 6.3783C114.372 6.61889 113.927 6.9509 113.63 7.37434C113.334 7.78816 113.18 8.2645 113.171 8.80344C113.153 9.24612 113.236 9.63588 113.422 9.97271C113.617 10.3095 113.895 10.6079 114.256 10.8678C114.628 11.118 115.073 11.3393 115.593 11.5317C116.112 11.7243 116.697 11.8926 117.346 12.037L119.795 12.6144C121.205 12.932 122.448 13.3555 123.524 13.8847C124.61 14.4141 125.519 15.0444 126.252 15.7758C126.994 16.5072 127.555 17.3493 127.935 18.3021C128.316 19.2547 128.51 20.323 128.52 21.5067C128.51 23.3737 128.056 24.976 127.156 26.3138C126.256 27.6514 124.962 28.6764 123.274 29.3885C121.595 30.1007 119.567 30.4567 117.193 30.4567C114.809 30.4567 112.73 30.0862 110.958 29.3452C109.187 28.6042 107.81 27.4782 106.826 25.9673C105.842 24.4564 105.337 22.546 105.309 20.2364H111.905C111.961 21.1891 112.206 21.9831 112.643 22.6182C113.078 23.2534 113.677 23.7346 114.437 24.0618C115.208 24.389 116.098 24.5526 117.109 24.5526C118.037 24.5526 118.825 24.4227 119.475 24.1629C120.133 23.903 120.639 23.5421 120.991 23.0802C121.344 22.6182 121.525 22.089 121.535 21.4923C121.525 20.9341 121.358 20.4578 121.033 20.0632C120.708 19.659 120.208 19.3125 119.531 19.0238C118.863 18.7255 118.009 18.4512 116.97 18.201L113.992 17.4792C111.524 16.8921 109.581 15.9443 108.161 14.6354C106.742 13.3169 106.038 11.5366 106.047 9.29425C106.038 7.46577 106.51 5.86342 107.466 4.48725C108.422 3.11106 109.744 2.03802 111.432 1.26812C113.12 0.498229 115.045 0.113281 117.207 0.113281C119.415 0.113281 121.33 0.50304 122.954 1.28256C124.586 2.05245 125.853 3.13512 126.752 4.53055C127.652 5.92599 128.111 7.54276 128.13 9.38092H121.535ZM157.867 11.2286H150.909C150.816 10.4876 150.626 9.81873 150.339 9.22206C150.051 8.62539 149.671 8.11537 149.198 7.69193C148.724 7.26848 148.163 6.94609 147.513 6.72475C146.874 6.49377 146.164 6.3783 145.385 6.3783C144.002 6.3783 142.81 6.72955 141.809 7.43208C140.816 8.13458 140.05 9.14995 139.513 10.478C138.984 11.806 138.719 13.4132 138.719 15.2995C138.719 17.2627 138.988 18.9083 139.527 20.2364C140.074 21.5548 140.839 22.5509 141.822 23.2246C142.815 23.8886 143.988 24.2206 145.343 24.2206C146.103 24.2206 146.795 24.1195 147.416 23.9174C148.047 23.7153 148.599 23.4218 149.072 23.0369C149.555 22.6423 149.949 22.166 150.255 21.6078C150.571 21.0399 150.788 20.4 150.909 19.6878L157.867 19.7312C157.746 21.0399 157.379 22.3295 156.767 23.5999C156.165 24.8702 155.334 26.0299 154.277 27.0788C153.219 28.1182 151.929 28.9458 150.408 29.5617C148.896 30.1777 147.161 30.4856 145.204 30.4856C142.625 30.4856 140.315 29.8986 138.274 28.7245C136.242 27.5408 134.638 25.8182 133.459 23.5565C132.281 21.295 131.692 18.5426 131.692 15.2995C131.692 12.0466 132.291 9.28946 133.487 7.0279C134.684 4.76633 136.303 3.04851 138.343 1.87442C140.385 0.700326 142.671 0.113281 145.204 0.113281C146.929 0.113281 148.525 0.363497 149.991 0.863929C151.456 1.35473 152.746 2.07651 153.859 3.02925C154.972 3.97238 155.877 5.13203 156.572 6.50821C157.268 7.8844 157.7 9.45783 157.867 11.2286ZM161.808 30.0814V0.517476H173.58C175.714 0.517476 177.555 0.916856 179.104 1.71562C180.663 2.50477 181.864 3.64036 182.708 5.12241C183.553 6.59482 183.975 8.34149 183.975 10.3625C183.975 12.4123 183.543 14.1543 182.68 15.5882C181.818 17.0125 180.593 18.0999 179.007 18.8506C177.421 19.5916 175.542 19.9621 173.371 19.9621H165.927V14.3323H172.091C173.13 14.3323 173.998 14.1927 174.694 13.9136C175.398 13.6249 175.932 13.1919 176.294 12.6144C176.655 12.0274 176.836 11.2768 176.836 10.3625C176.836 9.44824 176.655 8.69279 176.294 8.09612C175.932 7.48983 175.398 7.03751 174.694 6.73918C173.988 6.43122 173.121 6.27725 172.091 6.27725H168.696V30.0814H161.808ZM177.852 16.5698L184.949 30.0814H177.435L170.477 16.5698H177.852ZM194.641 0.517476V30.0814H187.752V0.517476H194.641ZM198.965 30.0814V0.517476H210.737C212.871 0.517476 214.712 0.950539 216.261 1.81668C217.82 2.67318 219.021 3.87133 219.865 5.41112C220.709 6.94128 221.132 8.72165 221.132 10.7522C221.132 12.7925 220.7 14.5777 219.838 16.1078C218.984 17.6284 217.764 18.8073 216.178 19.6445C214.592 20.4818 212.708 20.9004 210.528 20.9004H203.265V15.2706H209.248C210.287 15.2706 211.154 15.0829 211.85 14.7076C212.555 14.3323 213.089 13.8078 213.451 13.1341C213.812 12.4508 213.993 11.6569 213.993 10.7522C213.993 9.83799 213.812 9.04889 213.451 8.38482C213.089 7.71117 212.555 7.1915 211.85 6.8258C211.145 6.4601 210.277 6.27725 209.248 6.27725H205.853V30.0814H198.965ZM223.595 6.32056V0.517476H247.682V6.32056H239.04V30.0814H232.25V6.32056H223.595Z" fill="white"/>
</g>
<defs>
<clipPath id="clip0_98_6">
<rect width="250" height="300" fill="white"/>
</clipPath>
</defs>
</svg>
