<svg width="250" height="300" viewBox="0 0 250 300" fill="none" xmlns="http://www.w3.org/2000/svg">
<g clip-path="url(#clip0_98_2)">
<path d="M123.8 55.2449C60.4874 55.2449 64.441 82.1253 64.441 82.1253L64.5116 109.973H124.929V118.334H40.5139C40.5139 118.334 0 113.836 0 176.378C-4.51562e-06 238.922 35.3614 236.704 35.3614 236.704H56.4653V207.681C56.4653 207.681 55.3277 173.062 91.2621 173.062H151.186C151.186 173.062 184.853 173.595 184.853 141.206V87.6533C184.853 87.6533 189.965 55.2449 123.8 55.2449ZM90.4857 73.9714C96.4964 73.9714 101.355 78.7274 101.355 84.6127C101.355 90.498 96.4964 95.254 90.4857 95.254C84.4743 95.254 79.6157 90.498 79.6157 84.6127C79.6157 78.7274 84.4743 73.9714 90.4857 73.9714Z" fill="url(#paint0_linear_98_2)"/>
<path d="M125.599 298.139C188.911 298.139 184.958 271.259 184.958 271.259L184.887 243.411H124.469V235.05H208.885C208.885 235.05 249.399 239.548 249.399 177.006C249.399 114.462 214.037 116.68 214.037 116.68H192.934V145.703C192.934 145.703 194.071 180.322 158.136 180.322H98.2129C98.2129 180.322 64.5454 179.789 64.5454 212.178V265.731C64.5454 265.731 59.4338 298.139 125.599 298.139ZM158.913 279.413C152.902 279.413 148.044 274.657 148.044 268.771C148.044 262.886 152.902 258.13 158.913 258.13C164.924 258.13 169.783 262.886 169.783 268.771C169.783 274.657 164.924 279.413 158.913 279.413Z" fill="url(#paint1_linear_98_2)"/>
<path d="M33.7358 31.4685V0.953577H46.6113C48.9448 0.953577 50.9588 1.40057 52.6533 2.29456C54.3578 3.17862 55.6717 4.41531 56.595 6.00463C57.5183 7.58404 57.98 9.42166 57.98 11.5176C57.98 13.6234 57.5081 15.4661 56.5646 17.0454C55.6311 18.6149 54.2969 19.8317 52.5619 20.6959C50.8269 21.5601 48.7673 21.9922 46.383 21.9922H38.4386V16.1812H44.9828C46.1191 16.1812 47.0678 15.9875 47.8288 15.6001C48.5999 15.2128 49.1833 14.6714 49.579 13.9761C49.9747 13.2708 50.1726 12.4513 50.1726 11.5176C50.1726 10.5739 49.9747 9.75942 49.579 9.07404C49.1833 8.37865 48.5999 7.84229 47.8288 7.46481C47.0577 7.08733 46.109 6.89863 44.9828 6.89863H41.2693V31.4685H33.7358ZM60.1411 0.953577H68.5573L75.1471 13.7228H75.4213L82.0113 0.953577H90.4271L79.0278 21.277V31.4685H71.5399V21.277L60.1411 0.953577ZM94.5328 6.94333V0.953577H120.877V6.94333H111.426V31.4685H103.999V6.94333H94.5328ZM124.556 31.4685V0.953577H132.09V13.2012H144.371V0.953577H151.89V31.4685H144.371V19.2059H132.09V31.4685H124.556ZM186.034 16.211C186.034 19.5685 185.374 22.4144 184.056 24.7487C182.736 27.083 180.951 28.8561 178.698 30.068C176.456 31.2798 173.94 31.8857 171.15 31.8857C168.349 31.8857 165.828 31.2748 163.586 30.0531C161.343 28.8312 159.563 27.0582 158.243 24.7338C156.935 22.3994 156.281 19.5585 156.281 16.211C156.281 12.8536 156.935 10.0077 158.243 7.67341C159.563 5.3391 161.343 3.56602 163.586 2.35416C165.828 1.1423 168.349 0.536377 171.15 0.536377C173.94 0.536377 176.456 1.1423 178.698 2.35416C180.951 3.56602 182.736 5.3391 184.056 7.67341C185.374 10.0077 186.034 12.8536 186.034 16.211ZM178.333 16.211C178.333 14.2244 178.044 12.5456 177.466 11.1749C176.897 9.80411 176.076 8.76607 175 8.06082C173.935 7.35558 172.651 7.00292 171.15 7.00292C169.658 7.00292 168.375 7.35558 167.299 8.06082C166.223 8.76607 165.397 9.80411 164.818 11.1749C164.25 12.5456 163.966 14.2244 163.966 16.211C163.966 18.1977 164.25 19.8764 164.818 21.2472C165.397 22.618 166.223 23.656 167.299 24.3612C168.375 25.0666 169.658 25.4191 171.15 25.4191C172.651 25.4191 173.935 25.0666 175 24.3612C176.076 23.656 176.897 22.618 177.466 21.2472C178.044 19.8764 178.333 18.1977 178.333 16.211ZM216.959 0.953577V31.4685H210.567L198.163 13.8568H197.966V31.4685H190.432V0.953577H196.916L209.182 18.5354H209.441V0.953577H216.959Z" fill="#FFE052"/>
</g>
<defs>
<linearGradient id="paint0_linear_98_2" x1="2396.76" y1="2240.01" x2="14496.6" y2="14475.9" gradientUnits="userSpaceOnUse">
<stop stop-color="#387EB8"/>
<stop offset="1" stop-color="#366994"/>
</linearGradient>
<linearGradient id="paint1_linear_98_2" x1="3601.99" y1="3851.15" x2="16608.6" y2="16410.2" gradientUnits="userSpaceOnUse">
<stop stop-color="#FFE052"/>
<stop offset="1" stop-color="#FFC331"/>
</linearGradient>
<clipPath id="clip0_98_2">
<rect width="250" height="300" fill="white"/>
</clipPath>
</defs>
</svg>
