<svg width="250" height="300" viewBox="0 0 250 300" fill="none" xmlns="http://www.w3.org/2000/svg">
<path d="M205.55 141.913C202.957 141.054 200.27 140.241 197.502 139.472C197.957 137.685 198.375 135.922 198.745 134.188C204.838 105.724 200.855 82.7929 187.253 75.243C174.212 68.0035 152.882 75.5518 131.341 93.5969C129.269 95.332 127.192 97.1691 125.116 99.0946C123.732 97.8206 122.351 96.5896 120.973 95.4121C98.3972 76.1171 75.7682 67.986 62.1803 75.5577C49.1508 82.818 45.2922 104.376 50.7758 131.351C51.3055 133.957 51.9245 136.618 52.6243 139.323C49.4218 140.198 46.33 141.131 43.3717 142.124C16.9037 151.006 0 164.928 0 179.366C0 194.281 18.146 209.239 45.7145 218.308C47.8902 219.024 50.1475 219.701 52.474 220.344C51.7188 223.271 51.062 226.137 50.5107 228.934C45.282 255.441 49.3653 276.489 62.36 283.704C75.7825 291.156 98.3092 283.497 120.244 265.041C121.978 263.581 123.718 262.035 125.461 260.413C127.72 262.506 129.976 264.489 132.22 266.347C153.467 283.948 174.452 291.053 187.433 283.819C200.843 276.346 205.202 253.736 199.543 226.227C199.112 224.126 198.608 221.979 198.043 219.794C199.625 219.345 201.178 218.88 202.693 218.397C231.353 209.256 250 194.48 250 179.366C250 164.875 232.552 150.86 205.55 141.913ZM199.333 208.638C197.967 209.074 196.565 209.495 195.135 209.904C191.972 200.262 187.702 190.009 182.475 179.418C187.462 169.076 191.567 158.956 194.642 149.377C197.2 150.089 199.682 150.84 202.073 151.633C225.208 159.299 239.32 170.634 239.32 179.366C239.32 188.669 224.08 200.746 199.333 208.638ZM189.067 228.223C191.568 240.387 191.925 251.385 190.268 259.983C188.778 267.709 185.785 272.859 182.082 274.922C174.203 279.311 157.355 273.606 139.185 258.555C137.102 256.829 135.003 254.987 132.899 253.038C139.943 245.621 146.983 237 153.854 227.426C165.94 226.394 177.358 224.706 187.713 222.401C188.223 224.382 188.677 226.323 189.067 228.223ZM85.2307 274.163C77.5332 276.78 71.4023 276.855 67.6965 274.798C59.8107 270.42 56.5323 253.521 61.0042 230.851C61.5163 228.255 62.126 225.589 62.8287 222.861C73.0698 225.042 84.4043 226.611 96.5188 227.556C103.436 236.925 110.68 245.536 117.98 253.078C116.385 254.559 114.796 255.971 113.216 257.3C103.517 265.461 93.7968 271.251 85.2307 274.163ZM49.1685 208.582C36.9783 204.571 26.9112 199.359 20.0107 193.67C13.81 188.559 10.6795 183.484 10.6795 179.366C10.6795 170.604 24.2515 159.428 46.887 151.831C49.6337 150.909 52.5087 150.041 55.4923 149.225C58.6207 159.02 62.7245 169.261 67.6768 179.616C62.6605 190.126 58.4983 200.531 55.3393 210.441C53.2123 209.852 51.1515 209.233 49.1685 208.582ZM61.2568 129.377C56.5587 106.265 59.679 88.8298 67.5308 84.4547C75.8947 79.794 94.3892 86.4392 113.882 103.099C115.128 104.164 116.379 105.279 117.633 106.432C110.369 113.939 103.192 122.487 96.336 131.8C84.5783 132.849 73.3235 134.535 62.9755 136.791C62.3248 134.272 61.7487 131.797 61.2568 129.377ZM169.095 155.009C166.622 150.896 164.082 146.88 161.493 142.974C169.47 143.945 177.112 145.233 184.288 146.81C182.135 153.457 179.448 160.407 176.288 167.531C174.02 163.388 171.622 159.208 169.095 155.009ZM125.119 113.779C130.045 118.916 134.979 124.651 139.831 130.874C134.941 130.652 129.991 130.536 125 130.536C120.056 130.536 115.142 130.649 110.283 130.868C115.14 124.703 120.116 118.975 125.119 113.779ZM80.8612 155.08C78.3902 159.204 76.0362 163.36 73.804 167.523C70.694 160.424 68.0333 153.442 65.86 146.701C72.9928 145.164 80.5992 143.908 88.525 142.956C85.8995 146.898 83.339 150.944 80.8612 155.08ZM88.7532 216.512C80.5645 215.633 72.8437 214.441 65.7127 212.945C67.9207 206.084 70.6402 198.954 73.816 191.702C76.054 195.861 78.4173 200.02 80.9035 204.152C83.436 208.364 86.0602 212.488 88.7532 216.512ZM125.415 245.679C120.353 240.423 115.304 234.608 110.373 228.353C115.16 228.534 120.04 228.626 125 228.626C130.096 228.626 135.133 228.515 140.091 228.303C135.223 234.671 130.308 240.494 125.415 245.679ZM176.39 191.333C179.732 198.662 182.548 205.757 184.785 212.501C177.537 214.092 169.71 215.374 161.464 216.327C164.059 212.368 166.621 208.283 169.138 204.082C171.685 199.832 174.103 195.574 176.39 191.333ZM159.887 198.946C155.979 205.469 151.967 211.696 147.894 217.572C140.476 218.082 132.811 218.345 125 218.345C117.22 218.345 109.652 218.113 102.365 217.657C98.128 211.704 94.0287 205.458 90.1457 199.003C86.2728 192.563 82.7093 186.071 79.4795 179.613C82.7083 173.142 86.2635 166.641 90.114 160.214C93.9748 153.77 98.0372 147.557 102.235 141.64C109.67 141.099 117.295 140.816 125 140.816C132.739 140.816 140.374 141.101 147.806 141.647C151.94 147.52 155.976 153.715 159.852 160.16C163.772 166.678 167.373 173.135 170.63 179.467C167.383 185.91 163.79 192.431 159.887 198.946ZM181.918 84.1489C190.29 88.7959 193.547 107.538 188.287 132.113C187.95 133.682 187.573 135.279 187.162 136.898C176.79 134.594 165.528 132.88 153.736 131.815C146.866 122.399 139.748 113.838 132.602 106.427C134.523 104.648 136.442 102.952 138.352 101.351C156.809 85.8906 174.058 79.7863 181.918 84.1489ZM125 157.879C137.329 157.879 147.324 167.499 147.324 179.366C147.324 191.235 137.329 200.856 125 200.856C112.671 200.856 102.676 191.235 102.676 179.366C102.676 167.499 112.671 157.879 125 157.879Z" fill="#00D8FF"/>
<path d="M48.2021 36.8985V1.89603H60.4891C63.33 1.89603 65.662 2.36318 67.4848 3.2975C69.3078 4.22041 70.6573 5.49084 71.5331 7.1088C72.4091 8.72674 72.8472 10.5669 72.8472 12.6292C72.8472 14.6915 72.4091 16.5203 71.5331 18.1154C70.6573 19.7105 69.3136 20.964 67.5026 21.8755C65.6916 22.7755 63.3775 23.2257 60.5602 23.2257H50.617V19.3972H60.4181C62.3595 19.3972 63.922 19.1239 65.1056 18.5768C66.3011 18.0299 67.1653 17.2552 67.698 16.2525C68.2425 15.2384 68.5146 14.0307 68.5146 12.6292C68.5146 11.2277 68.2425 10.0029 67.698 8.95463C67.1535 7.90638 66.2835 7.09741 65.0878 6.5277C63.8923 5.94661 62.3122 5.65606 60.3472 5.65606H52.6056V36.8985H48.2021ZM65.3186 21.1748L74.2675 36.8985H69.154L60.3472 21.1748H65.3186ZM80.1847 36.8985V1.89603H102.131V5.65606H84.588V17.483H100.994V21.2431H84.588V33.1384H102.415V36.8985H80.1847ZM111.559 36.8985H106.942L120.295 1.89603H124.84L138.192 36.8985H133.576L122.709 7.43352H122.425L111.559 36.8985ZM113.263 23.2257H131.871V26.9856H113.263V23.2257ZM171.408 12.8343H167.005C166.745 11.6151 166.289 10.5441 165.638 9.62118C164.999 8.69827 164.218 7.92347 163.294 7.2968C162.383 6.65873 161.371 6.18018 160.258 5.86115C159.146 5.54212 157.986 5.38259 156.778 5.38259C154.576 5.38259 152.582 5.91812 150.794 6.98915C149.019 8.0602 147.604 9.63826 146.551 11.7234C145.509 13.8085 144.988 16.3664 144.988 19.3972C144.988 22.428 145.509 24.9861 146.551 27.0711C147.604 29.1562 149.019 30.7343 150.794 31.8054C152.582 32.8764 154.576 33.4119 156.778 33.4119C157.986 33.4119 159.146 33.2524 160.258 32.9333C161.371 32.6142 162.383 32.1415 163.294 31.5148C164.218 30.8766 164.999 30.0962 165.638 29.1734C166.289 28.239 166.745 27.168 167.005 25.9602H171.408C171.077 27.7491 170.473 29.3498 169.598 30.7627C168.722 32.1756 167.633 33.3777 166.331 34.369C165.029 35.3489 163.567 36.0952 161.945 36.6079C160.335 37.1206 158.613 37.377 156.778 37.377C153.677 37.377 150.919 36.6479 148.504 35.1894C146.089 33.731 144.189 31.6573 142.804 28.9682C141.419 26.2793 140.727 23.0888 140.727 19.3972C140.727 15.7056 141.419 12.5153 142.804 9.82627C144.189 7.13727 146.089 5.06357 148.504 3.60513C150.919 2.1467 153.677 1.41748 156.778 1.41748C158.613 1.41748 160.335 1.67384 161.945 2.18658C163.567 2.69931 165.029 3.45132 166.331 4.4426C167.633 5.42248 168.722 6.61885 169.598 8.03171C170.473 9.43317 171.077 11.034 171.408 12.8343ZM176.537 5.65606V1.89603H203.808V5.65606H192.373V36.8985H187.97V5.65606H176.537Z" fill="#00D8FF"/>
</svg>
